<svg id="Capa_1" enable-background="new 0 0 512 512" height="512" viewBox="0 0 512 512" width="512" xmlns="http://www.w3.org/2000/svg"><path style="fill: #028090;" d="m477.571 135.5c0-4.721-2.223-9.167-6-12l-47.163-35.372c11.402-9.062 18.734-23.038 18.734-38.701.001-27.254-22.173-49.427-49.428-49.427h-275.429c-27.255 0-49.429 22.173-49.429 49.428 0 15.664 7.332 29.638 18.734 38.701l-47.161 35.371c-3.777 2.833-6 7.279-6 12 0 22.026 14.485 40.727 34.428 47.094v228.334c-.001 55.731 45.34 101.072 101.072 101.072h172.143c55.731 0 101.071-45.341 101.071-101.072v-228.334c19.942-6.367 34.428-25.068 34.428-47.094zm-359.286-105.5h275.429c10.713 0 19.429 8.715 19.429 19.428s-8.716 19.43-19.429 19.43h-275.429c-10.713 0-19.429-8.716-19.429-19.43 0-10.713 8.716-19.428 19.429-19.428zm0 140.934c8.907 8.657 21.056 13.994 34.429 13.994s25.521-5.337 34.429-13.994c8.907 8.657 21.056 13.994 34.429 13.994s25.521-5.337 34.429-13.994c8.907 8.657 21.056 13.994 34.429 13.994s25.521-5.337 34.428-13.994c8.907 8.657 21.056 13.994 34.429 13.994s25.521-5.337 34.429-13.994c5.424 5.273 12.056 9.303 19.429 11.657v41.195h-314.289v-41.196c7.374-2.354 14.005-6.384 19.429-11.656zm209.505 224.994c18.091-18.272 29.281-43.388 29.281-71.07 0-27.684-11.191-52.8-29.282-71.072h85.353v142.143h-85.352zm-228.934-142.143h85.354c-18.091 18.272-29.282 43.389-29.282 71.072s11.19 52.798 29.281 71.07h-85.353zm86.073 71.072c0-39.189 31.882-71.072 71.071-71.072s71.071 31.883 71.071 71.072-31.882 71.07-71.071 71.07-71.071-31.881-71.071-71.07zm157.142 157.143h-172.142c-34.043 0-62.56-24.065-69.465-56.072h311.071c-6.905 32.007-35.421 56.072-69.464 56.072zm86.072-327.072c-10.713 0-19.429-8.715-19.429-19.428 0-8.284-6.716-15-15-15s-15 6.716-15 15c0 10.712-8.716 19.428-19.429 19.428s-19.429-8.715-19.429-19.428c0-8.284-6.716-15-15-15s-15 6.716-15 15c0 10.712-8.715 19.428-19.428 19.428s-19.429-8.715-19.429-19.428c0-8.284-6.716-15-15-15s-15 6.716-15 15c0 10.712-8.716 19.428-19.429 19.428s-19.429-8.715-19.429-19.428c0-8.284-6.716-15-15-15s-15 6.716-15 15c0 10.712-8.716 19.428-19.429 19.428s-19.429-8.715-19.429-19.428c0-8.284-6.716-15-15-15s-15 6.716-15 15c0 10.712-8.716 19.428-19.429 19.428-8.386 0-15.548-5.342-18.264-12.801l57.692-43.27h265.429l57.693 43.27c-2.712 7.459-9.875 12.801-18.261 12.801z"/></svg>