<svg id="Capa_1" enable-background="new 0 0 512 512" height="512" viewBox="0 0 512 512" width="512" xmlns="http://www.w3.org/2000/svg"><g><path d="m130.6 512h86.306c5.523 0 10-4.477 10-10s-4.477-10-10-10h-86.306c-13.504 0-24.49-10.986-24.49-24.49v-245.66c0-8.472 2.473-16.689 7.151-23.764l10.383-15.7c9.132 8.728 21.297 15.425 32.515 18.104v3.438c0 15.084 12.147 27.356 27.078 27.356h146.106c14.931 0 27.078-12.272 27.078-27.356v-3.438c11.075-2.645 23.073-9.205 32.165-17.771l10.163 15.367c4.671 7.064 7.141 15.282 7.141 23.764v245.66c0 13.504-10.985 24.49-24.489 24.49h-76.558c-5.522 0-10 4.477-10 10s4.478 10 10 10h76.558c24.531 0 44.489-19.958 44.489-44.49v-245.66c0-12.417-3.616-24.45-10.459-34.796l-13.505-20.42c13.33-19.651 20.546-43.248 20.546-67.894v-46.544c0-14.212-11.45-25.775-25.523-25.775h-13.317v-4.494c-.001-12.091-9.837-21.927-21.928-21.927h-211.408c-12.09 0-21.926 9.836-21.926 21.926v4.494h-12.737c-14.073 0-25.523 11.563-25.523 25.775v46.543c0 24.468 7.109 47.905 20.255 67.471l-13.785 20.844c-6.849 10.357-10.469 22.39-10.469 34.796v245.66c-.001 24.533 19.957 44.491 44.489 44.491zm205.821-308.072c0 4.056-3.175 7.356-7.078 7.356h-146.106c-3.903 0-7.078-3.3-7.078-7.356v-24.287c0-4.056 3.175-7.356 7.078-7.356h146.106c3.903 0 7.078 3.3 7.078 7.356zm20-24.306c-.011-15.075-12.154-27.336-27.078-27.336h-146.106c-14.925 0-27.067 12.261-27.078 27.336-7.524-2.834-15.732-8.15-21.06-14.099-.058-.065-.112-.134-.17-.199l29.365-44.401c4.44-6.72 6.787-14.532 6.787-22.592v-25.49h169.84v25.489c0 8.05 2.35 15.863 6.799 22.596l29.604 44.763c-5.332 5.881-13.45 11.125-20.903 13.933zm27.21-128.707v-4.495h13.317c3.046 0 5.523 2.591 5.523 5.775v46.543c0 17.694-4.438 34.702-12.704 49.51l-25.365-38.353c-2.279-3.449-3.483-7.448-3.483-11.567v-25.487h.784c12.092 0 21.928-9.836 21.928-21.926zm-235.262-28.989c0-1.062.864-1.926 1.926-1.926h211.409c1.063 0 1.927.864 1.927 1.926v28.988c0 1.063-.864 1.927-1.927 1.927h-10.755c-.01 0-.019-.001-.029-.001h-189.84c-.01 0-.019.001-.029.001h-10.756c-1.062 0-1.926-.864-1.926-1.927zm-38.26 76.813v-46.543c0-3.185 2.478-5.775 5.523-5.775h12.737v4.494c0 12.09 9.836 21.927 21.926 21.927h.785v25.488c0 4.128-1.201 8.128-3.471 11.563l-25.061 37.893c-8.098-14.698-12.439-31.538-12.439-49.047z"/><path d="m253.893 495.47c-2.729 3.173-3.178 7.814-1.123 11.454 4.572 8.099 17.217 5.726 18.585-3.458.666-4.474-1.889-8.98-6.074-10.697-3.926-1.633-8.614-.525-11.388 2.701z"/><path d="m306.743 362.821c-.014-7.37-1.879-14.687-5.395-21.161l-33.731-62.119c-1.746-3.215-5.107-5.22-8.767-5.228-.007 0-.015 0-.021 0-3.65 0-7.011 1.989-8.767 5.19l-33.144 60.406c-2.52 4.593-4.247 9.246-5.133 13.828-.869 4.491-1.088 9.105-.651 13.714 2.188 23.089 21.296 41.659 44.449 43.194 27.286 1.811 51.16-20.437 51.16-47.824zm-28.845 20.405c-5.697 5.333-13.145 7.983-20.991 7.464-13.471-.894-24.588-11.694-25.861-25.124-.538-5.673.681-11.067 3.407-16.036l24.331-44.345 24.989 46.019c5.735 10.564 2.725 23.972-5.875 32.022z"/></g></svg>